<svg width="32" height="32" viewBox="0 0 32 32" fill="none" xmlns="http://www.w3.org/2000/svg">
<path d="M24 6.66666V10.6667H20V6.66666H12V10.6667H8.00004V6.66666H5.33337V26.6667H26.6667V6.66666H24ZM9.33337 25.3333H6.66671V22.6667H9.33337V25.3333ZM9.33337 21.3333H6.66671V18.6667H9.33337V21.3333ZM9.33337 17.3333H6.66671V14.6667H9.33337V17.3333ZM13.3334 25.3333H10.6667V22.6667H13.3334V25.3333ZM13.3334 21.3333H10.6667V18.6667H13.3334V21.3333ZM13.3334 17.3333H10.6667V14.6667H13.3334V17.3333ZM17.3334 25.3333H14.6667V22.6667H17.3334V25.3333ZM17.3334 21.3333H14.6667V18.6667H17.3334V21.3333ZM17.3334 17.3333H14.6667V14.6667H17.3334V17.3333ZM21.3334 25.3333H18.6667V22.6667H21.3334V25.3333ZM21.3334 21.3333H18.6667V18.6667H21.3334V21.3333ZM21.3334 17.3333H18.6667V14.6667H21.3334V17.3333ZM25.3334 25.3333H22.6667V22.6667H25.3334V25.3333ZM25.3334 21.3333H22.6667V18.6667H25.3334V21.3333ZM25.3334 17.3333H22.6667V14.6667H25.3334V17.3333Z" fill="#5367CC"/>
<path d="M9.33337 5.33334H10.6667V9.33334H9.33337V5.33334Z" fill="#5367CC"/>
<path d="M21.3334 5.33334H22.6667V9.33334H21.3334V5.33334Z" fill="#5367CC"/>
</svg>
