<svg width="24" height="24" viewBox="0 0 24 24" fill="none" xmlns="http://www.w3.org/2000/svg">
<g clip-path="url(#clip0_408_184)">
<path d="M24 12C24 24 24 24 12 24C0 24 0 24 0 12C0 0 0 0 12 0C24 0 24 0 24 12Z" fill="#E27E35"/>
<path d="M13.8797 16.0805C14.8266 15.8648 15.7383 15.4898 16.5774 14.9625C17.2126 14.5617 17.4047 13.7227 17.0039 13.0852C16.6032 12.4477 15.7641 12.2555 15.1266 12.6563C13.2235 13.8539 10.7743 13.8516 8.87113 12.6563C8.23365 12.2555 7.39456 12.4477 6.99378 13.0852C6.593 13.7203 6.78519 14.5617 7.42035 14.9625C8.25941 15.4898 9.17113 15.8648 10.118 16.0805L7.52347 18.6773C6.99146 19.2094 6.99146 20.0695 7.52347 20.6016C7.79066 20.8664 8.13753 21 8.48441 21C8.83363 21 9.1805 20.8664 9.44771 20.6016L12 18.0492L14.5524 20.6016C15.0844 21.1336 15.9446 21.1336 16.4766 20.6016C17.0086 20.0695 17.0086 19.207 16.4766 18.6773L13.8797 16.0805ZM12 5.72344C13.0618 5.72344 13.9243 6.58594 13.9243 7.64766C13.9243 8.70703 13.0618 9.56953 12 9.56953C10.9407 9.56953 10.0758 8.70703 10.0758 7.64766C10.0758 6.58594 10.9407 5.72344 12 5.72344ZM12 12.2906C14.5618 12.2906 16.6453 10.207 16.6453 7.64763C16.6453 5.08359 14.5618 3 12 3C9.43831 3 7.35474 5.08359 7.35474 7.64531C7.35474 10.207 9.43831 12.2906 12 12.2906Z" fill="white"/>
</g>
<defs>
<clipPath id="clip0_408_184">
<rect width="24" height="24" fill="white"/>
</clipPath>
</defs>
</svg>
