<svg width="24" height="24" viewBox="0 0 24 24" fill="none" xmlns="http://www.w3.org/2000/svg">
<g clip-path="url(#clip0_408_193)">
<path d="M12 24C18.6274 24 24 18.6274 24 12C24 5.37258 18.6274 0 12 0C5.37258 0 0 5.37258 0 12C0 18.6274 5.37258 24 12 24Z" fill="url(#paint0_linear_408_193)"/>
<path d="M4.46909 12.587C5.87189 11.8143 7.43779 11.1694 8.90089 10.5212C11.418 9.45951 13.9451 8.41621 16.4977 7.44491C16.9943 7.27941 17.8867 7.11761 17.9742 7.85361C17.9262 8.89541 17.7292 9.93111 17.594 10.9668C17.2509 13.2444 16.8542 15.5142 16.4675 17.7843C16.3342 18.5404 15.387 18.9319 14.7809 18.448C13.3243 17.464 11.8565 16.4898 10.4185 15.483C9.94749 15.0044 10.3843 14.317 10.8049 13.9752C12.0046 12.7929 13.2769 11.7884 14.4139 10.545C14.7206 9.80441 13.8144 10.4286 13.5155 10.6199C11.8731 11.7517 10.2709 12.9526 8.53929 13.9473C7.65479 14.4342 6.62389 14.0181 5.73979 13.7463C4.94709 13.4182 3.78549 13.0875 4.46899 12.5871L4.46909 12.587Z" fill="white"/>
</g>
<defs>
<linearGradient id="paint0_linear_408_193" x1="16.001" y1="4.0008" x2="10.001" y2="18" gradientUnits="userSpaceOnUse">
<stop stop-color="#37AEE2"/>
<stop offset="1" stop-color="#1E96C8"/>
</linearGradient>
<clipPath id="clip0_408_193">
<rect width="24" height="24" fill="white"/>
</clipPath>
</defs>
</svg>
