<svg width="24" height="24" viewBox="0 0 24 24" fill="none" xmlns="http://www.w3.org/2000/svg">
<g clip-path="url(#clip0_408_190)">
<path d="M12 24C18.6274 24 24 18.6274 24 12C24 5.37258 18.6274 0 12 0C5.37258 0 0 5.37258 0 12C0 18.6274 5.37258 24 12 24Z" fill="#4D76A1"/>
<path fill-rule="evenodd" clip-rule="evenodd" d="M11.5467 17.2631H12.4885C12.4885 17.2631 12.773 17.2318 12.9183 17.0753C13.0519 16.9315 13.0477 16.6615 13.0477 16.6615C13.0477 16.6615 13.0293 15.3978 13.6158 15.2117C14.194 15.0283 14.9365 16.4331 15.7235 16.9732C16.3186 17.382 16.7708 17.2924 16.7708 17.2924L18.875 17.2631C18.875 17.2631 19.9758 17.1953 19.4539 16.3298C19.4111 16.259 19.1499 15.6895 17.8893 14.5194C16.5699 13.2948 16.7466 13.4929 18.336 11.3745C19.3039 10.0844 19.6909 9.29679 19.57 8.95946C19.4547 8.63816 18.7428 8.72308 18.7428 8.72308L16.3736 8.73784C16.3736 8.73784 16.1979 8.71389 16.0677 8.79175C15.9404 8.86812 15.8585 9.04609 15.8585 9.04609C15.8585 9.04609 15.4835 10.0444 14.9834 10.8934C13.9283 12.6849 13.5065 12.7795 13.3341 12.6683C12.933 12.409 13.0331 11.6267 13.0331 11.071C13.0331 9.33487 13.2964 8.61099 12.5204 8.42361C12.2628 8.36136 12.0733 8.32029 11.4147 8.31366C10.5693 8.30489 9.85376 8.31622 9.44861 8.51473C9.17908 8.64672 8.97116 8.94085 9.0978 8.95774C9.25438 8.97871 9.60904 9.05336 9.79707 9.30942C10.0399 9.63969 10.0313 10.3815 10.0313 10.3815C10.0313 10.3815 10.1708 12.4252 9.70552 12.6792C9.38615 12.8533 8.94806 12.4978 8.00749 10.8725C7.52555 10.0399 7.16168 9.11968 7.16168 9.11968C7.16168 9.11968 7.09152 8.94769 6.96638 8.85571C6.81451 8.74426 6.60231 8.70875 6.60231 8.70875L4.35089 8.72351C4.35089 8.72351 4.01291 8.73292 3.88884 8.87988C3.77846 9.01058 3.88007 9.28097 3.88007 9.28097C3.88007 9.28097 5.6427 13.4047 7.63849 15.4829C9.4685 17.3882 11.5467 17.2631 11.5467 17.2631Z" fill="white"/>
</g>
<defs>
<clipPath id="clip0_408_190">
<rect width="24" height="24" fill="white"/>
</clipPath>
</defs>
</svg>
