<svg width="24" height="24" viewBox="0 0 24 24" fill="none" xmlns="http://www.w3.org/2000/svg">
<g clip-path="url(#clip0_408_187)">
<path d="M12.003 0H11.997C5.38052 0 1.57454e-05 5.382 1.57454e-05 12C-0.0040929 14.5275 0.795989 16.9908 2.28452 19.0335L0.789016 23.4915L5.40152 22.017C7.35807 23.3151 9.65503 24.005 12.003 24C18.6195 24 24 18.6165 24 12C24 5.3835 18.6195 0 12.003 0Z" fill="#4CAF50"/>
<path d="M18.9856 16.9455C18.6961 17.763 17.5471 18.441 16.6306 18.639C16.0036 18.7725 15.1846 18.879 12.4276 17.736C8.90108 16.275 6.63008 12.6915 6.45308 12.459C6.28358 12.2265 5.02808 10.5615 5.02808 8.8395C5.02808 7.1175 5.90258 6.279 6.25508 5.919C6.54458 5.6235 7.02308 5.48849 7.48208 5.48849C7.63058 5.48849 7.76408 5.49599 7.88408 5.50199C8.23658 5.51699 8.41358 5.538 8.64608 6.0945C8.93558 6.792 9.64058 8.514 9.72458 8.691C9.81008 8.868 9.89558 9.108 9.77558 9.3405C9.66308 9.5805 9.56408 9.68699 9.38708 9.891C9.21008 10.095 9.04208 10.251 8.86508 10.47C8.70308 10.6605 8.52008 10.8645 8.72408 11.217C8.92808 11.562 9.63308 12.7125 10.6711 13.6365C12.0106 14.829 13.0966 15.21 13.4851 15.372C13.7746 15.492 14.1196 15.4635 14.3311 15.2385C14.5996 14.949 14.9311 14.469 15.2686 13.9965C15.5086 13.6575 15.8116 13.6155 16.1296 13.7355C16.4536 13.848 18.1681 14.6955 18.5206 14.871C18.8731 15.048 19.1056 15.132 19.1911 15.2805C19.2751 15.429 19.2751 16.1265 18.9856 16.9455Z" fill="#FAFAFA"/>
</g>
<defs>
<clipPath id="clip0_408_187">
<rect width="24" height="24" fill="white"/>
</clipPath>
</defs>
</svg>
